<?xml version="1.0" encoding="UTF-8"?>
<!--
  wolves.ink master mark — a stylized "W" with riso-style stripe accents.
  Coordinates are intentionally left inside the original group transform so
  the path data round-trips with vector editors. Fill is `currentColor` so
  consumers (header glyph, mask-icon, OG variants) can colour it via CSS
  (`color: var(--color-cream)`) without forking the source.
-->
<svg width="550" height="415" viewBox="0 0 550 415" xmlns="http://www.w3.org/2000/svg" role="img" aria-label="Wolves">
    <title>Wolves</title>
    <g fill="none" fill-rule="evenodd">
        <g transform="translate(-225 -304)" fill="currentColor">
            <path d="M627.879524,539 L689.506201,539 L624.324737,718.084599 L551.689519,718.084599 L400.975051,304 L462.601727,304 L588.007128,648.548508 L627.879524,539 Z M629.699376,534 L636.97878,514 L698.605457,514 L691.326052,534 L629.699376,534 Z M640.618483,504 L647.897887,484 L709.524564,484 L702.245159,504 L640.618483,504 Z M653.357441,469 L660.636845,449 L722.263522,449 L714.984117,469 L653.357441,469 Z M667.91625,429 L675.195655,409 L736.822332,409 L729.542927,429 L667.91625,429 Z M684.294911,384 L691.574315,364 L753.200992,364 L745.921587,384 L684.294911,384 Z M702.493422,334 L713.412529,304 L775.039206,304 L764.120099,334 L702.493422,334 Z M286.634022,304 L412.27267,649.189348 L456.401167,527.947298 L487.214505,612.606249 L448.823525,718.084599 L375.721814,718.084599 L225.007345,304 L286.634022,304 Z M537.911317,304 L599.537994,304 L544.219314,455.986823 L513.405976,371.327872 L537.911317,304 Z"/>
        </g>
    </g>
</svg>
