<svg xmlns="http://www.w3.org/2000/svg" viewBox="0 0 800 800" preserveAspectRatio="xMidYMid slice">
  <rect width="800" height="800" fill="#f1e9d8"/>
  <!-- Halftone gradient — dot size scales horizontally -->
  <g fill="#0d0c0a">
    <!-- Row 1 (top, smallest dots) -->
    <g>
      <circle cx="80" cy="100" r="2"/>
      <circle cx="160" cy="100" r="3"/>
      <circle cx="240" cy="100" r="4"/>
      <circle cx="320" cy="100" r="6"/>
      <circle cx="400" cy="100" r="8"/>
      <circle cx="480" cy="100" r="10"/>
      <circle cx="560" cy="100" r="12"/>
      <circle cx="640" cy="100" r="14"/>
      <circle cx="720" cy="100" r="16"/>
    </g>
    <g transform="translate(0 80)">
      <circle cx="80" cy="100" r="3"/>
      <circle cx="160" cy="100" r="4"/>
      <circle cx="240" cy="100" r="5"/>
      <circle cx="320" cy="100" r="7"/>
      <circle cx="400" cy="100" r="9"/>
      <circle cx="480" cy="100" r="11"/>
      <circle cx="560" cy="100" r="13"/>
      <circle cx="640" cy="100" r="15"/>
      <circle cx="720" cy="100" r="17"/>
    </g>
    <g transform="translate(0 160)">
      <circle cx="80" cy="100" r="4"/>
      <circle cx="160" cy="100" r="5"/>
      <circle cx="240" cy="100" r="6"/>
      <circle cx="320" cy="100" r="8"/>
      <circle cx="400" cy="100" r="10"/>
      <circle cx="480" cy="100" r="12"/>
      <circle cx="560" cy="100" r="14"/>
      <circle cx="640" cy="100" r="16"/>
      <circle cx="720" cy="100" r="18"/>
    </g>
    <g transform="translate(0 240)">
      <circle cx="80" cy="100" r="5"/>
      <circle cx="160" cy="100" r="6"/>
      <circle cx="240" cy="100" r="7"/>
      <circle cx="320" cy="100" r="9"/>
      <circle cx="400" cy="100" r="11"/>
      <circle cx="480" cy="100" r="13"/>
      <circle cx="560" cy="100" r="15"/>
      <circle cx="640" cy="100" r="17"/>
      <circle cx="720" cy="100" r="19"/>
    </g>
    <g transform="translate(0 320)">
      <circle cx="80" cy="100" r="6"/>
      <circle cx="160" cy="100" r="7"/>
      <circle cx="240" cy="100" r="8"/>
      <circle cx="320" cy="100" r="10"/>
      <circle cx="400" cy="100" r="12"/>
      <circle cx="480" cy="100" r="14"/>
      <circle cx="560" cy="100" r="16"/>
      <circle cx="640" cy="100" r="18"/>
      <circle cx="720" cy="100" r="20"/>
    </g>
    <g transform="translate(0 400)">
      <circle cx="80" cy="100" r="7"/>
      <circle cx="160" cy="100" r="8"/>
      <circle cx="240" cy="100" r="9"/>
      <circle cx="320" cy="100" r="11"/>
      <circle cx="400" cy="100" r="13"/>
      <circle cx="480" cy="100" r="15"/>
      <circle cx="560" cy="100" r="17"/>
      <circle cx="640" cy="100" r="19"/>
      <circle cx="720" cy="100" r="21"/>
    </g>
  </g>
  <!-- Crop marks -->
  <g stroke="#0d0c0a" stroke-width="2">
    <line x1="20" y1="40" x2="20" y2="60"/>
    <line x1="20" y1="60" x2="40" y2="60"/>
    <line x1="780" y1="40" x2="780" y2="60"/>
    <line x1="760" y1="60" x2="780" y2="60"/>
    <line x1="20" y1="740" x2="20" y2="760"/>
    <line x1="20" y1="740" x2="40" y2="740"/>
    <line x1="780" y1="740" x2="780" y2="760"/>
    <line x1="760" y1="740" x2="780" y2="740"/>
  </g>
  <!-- Stamp -->
  <text x="400" y="720" text-anchor="middle" font-family="monospace" font-size="20" letter-spacing="4" fill="#0d0c0a">TEST · MAGENTA OVER YELLOW · DRYING</text>
</svg>
